<svg xmlns="http://www.w3.org/2000/svg" viewBox="0 0 512 512">
  <defs>
    <radialGradient id="halo" cx=".5" cy=".5" r=".5">
      <stop offset="0" stop-color="#ffd266" stop-opacity=".5"/>
      <stop offset="1" stop-color="#ff5588" stop-opacity="0"/>
    </radialGradient>
    <radialGradient id="glass" cx=".5" cy=".4" r=".55">
      <stop offset="0" stop-color="#fff5d4" stop-opacity=".22"/>
      <stop offset=".7" stop-color="#ffd266" stop-opacity=".1"/>
      <stop offset="1" stop-color="#5a3dff" stop-opacity=".05"/>
    </radialGradient>
    <filter id="blur" x="-50%" y="-50%" width="200%" height="200%">
      <feGaussianBlur stdDeviation="8"/>
    </filter>
  </defs>

  <rect width="512" height="512" rx="96" ry="96" fill="#0d0d12"/>

  <circle cx="256" cy="220" r="190" fill="url(#halo)"/>

  <path d="M 218 360 L 218 408 Q 218 416 226 416 L 286 416 Q 294 416 294 408 L 294 360 Z"
        fill="#2f2f3a" stroke="#1a1a22" stroke-width="2"/>
  <path d="M 218 372 L 294 372 M 218 384 L 294 384 M 218 396 L 294 396"
        stroke="#0d0d12" stroke-width="3" fill="none"/>

  <path d="M 218 320 Q 200 340 218 360 L 294 360 Q 312 340 294 320 Z"
        fill="#3a3a48" stroke="#1a1a22" stroke-width="2"/>

  <circle cx="256" cy="220" r="125" fill="url(#glass)" stroke="#6a6a78" stroke-width="3"/>

  <g filter="url(#blur)" opacity=".95">
    <text x="256" y="284" font-family="DejaVu Sans, sans-serif" font-size="210" font-weight="900"
          text-anchor="middle" fill="#ffaa33">?</text>
  </g>

  <text x="256" y="284" font-family="DejaVu Sans, sans-serif" font-size="210" font-weight="900"
        text-anchor="middle" fill="#fff5d4">?</text>
</svg>
