<svg xmlns="http://www.w3.org/2000/svg" viewBox="0 0 512 512">
  <defs>
    <radialGradient id="halo" cx=".5" cy=".5" r=".5">
      <stop offset="0" stop-color="#ffd266" stop-opacity=".5"/>
      <stop offset="1" stop-color="#ff5588" stop-opacity="0"/>
    </radialGradient>
    <radialGradient id="glass" cx=".5" cy=".4" r=".55">
      <stop offset="0" stop-color="#fff5d4" stop-opacity=".22"/>
      <stop offset=".7" stop-color="#ffd266" stop-opacity=".1"/>
      <stop offset="1" stop-color="#5a3dff" stop-opacity=".05"/>
    </radialGradient>
    <filter id="blur" x="-50%" y="-50%" width="200%" height="200%">
      <feGaussianBlur stdDeviation="6"/>
    </filter>
  </defs>

  <rect width="512" height="512" fill="#0d0d12"/>

  <circle cx="256" cy="246" r="150" fill="url(#halo)"/>

  <path d="M 230 354 L 230 392 Q 230 398 236 398 L 276 398 Q 282 398 282 392 L 282 354 Z"
        fill="#2f2f3a" stroke="#1a1a22" stroke-width="2"/>
  <path d="M 230 364 L 282 364 M 230 374 L 282 374 M 230 384 L 282 384"
        stroke="#0d0d12" stroke-width="2" fill="none"/>

  <path d="M 230 322 Q 218 338 230 354 L 282 354 Q 294 338 282 322 Z"
        fill="#3a3a48" stroke="#1a1a22" stroke-width="2"/>

  <circle cx="256" cy="246" r="92" fill="url(#glass)" stroke="#6a6a78" stroke-width="2"/>

  <g filter="url(#blur)" opacity=".95">
    <text x="256" y="292" font-family="DejaVu Sans, sans-serif" font-size="155" font-weight="900"
          text-anchor="middle" fill="#ffaa33">?</text>
  </g>

  <text x="256" y="292" font-family="DejaVu Sans, sans-serif" font-size="155" font-weight="900"
        text-anchor="middle" fill="#fff5d4">?</text>
</svg>
